<svg xmlns="http://www.w3.org/2000/svg" id="prefix__icons_otherfeature" width="30" height="30" data-name="icons/otherfeature" viewBox="0 0 30 30">
    <path id="prefix__Rectangle_5825" d="M0 0H30V30H0z" data-name="Rectangle 5825" style="fill:none"/>
    <g id="prefix__Group_14673" data-name="Group 14673" transform="translate(7.5 8)">
        <path id="prefix__Path_16" d="M.32 8.8l3.235 2.773-1.006 4.164a.892.892 0 0 0 1.341.977L7.5 14.46l3.61 2.254a.9.9 0 0 0 1.341-.977l-1.006-4.169L14.68 8.8a.907.907 0 0 0-.513-1.6l-4.241-.32-1.6-3.969a.9.9 0 0 0-1.657 0L5.073 6.88.832 7.2A.909.909 0 0 0 .32 8.8z" data-name="Path 16" transform="translate(0 -2.358)" style="stroke:#18bfff;stroke-width:2.5px;fill:none"/>
    </g>
</svg>
